<svg width="1581" height="1565" viewBox="0 0 1581 1565" fill="none" xmlns="http://www.w3.org/2000/svg">
<g opacity="0.09">
<line y1="1534.12" x2="1511.58" y2="1534.12" stroke="#A9A879" stroke-opacity="0.51" stroke-width="1.2607"/>
<line y1="888.644" x2="1511.58" y2="888.644" stroke="#A9A879" stroke-opacity="0.51" stroke-width="1.2607"/>
<line y1="1211.38" x2="1511.58" y2="1211.38" stroke="#A9A879" stroke-opacity="0.51" stroke-width="1.2607"/>
<line y1="565.906" x2="1511.58" y2="565.906" stroke="#A9A879" stroke-opacity="0.51" stroke-width="1.2607"/>
<line y1="243.166" x2="1511.58" y2="243.166" stroke="#A9A879" stroke-opacity="0.51" stroke-width="1.2607"/>
<line y1="1372.75" x2="1511.58" y2="1372.75" stroke="#A9A879" stroke-opacity="0.51" stroke-width="1.2607"/>
<line y1="727.274" x2="1511.58" y2="727.274" stroke="#A9A879" stroke-opacity="0.51" stroke-width="1.2607"/>
<line y1="1050.01" x2="1511.58" y2="1050.01" stroke="#A9A879" stroke-opacity="0.51" stroke-width="1.2607"/>
<line y1="404.536" x2="1511.58" y2="404.536" stroke="#A9A879" stroke-opacity="0.51" stroke-width="1.2607"/>
<line y1="81.7974" x2="1511.58" y2="81.7974" stroke="#A9A879" stroke-opacity="0.51" stroke-width="1.2607"/>
<line y1="1453.44" x2="1511.58" y2="1453.44" stroke="#A9A879" stroke-opacity="0.51" stroke-width="1.2607"/>
<line y1="807.959" x2="1511.58" y2="807.959" stroke="#A9A879" stroke-opacity="0.51" stroke-width="1.2607"/>
<line y1="1130.7" x2="1511.58" y2="1130.7" stroke="#A9A879" stroke-opacity="0.51" stroke-width="1.2607"/>
<line y1="485.221" x2="1511.58" y2="485.221" stroke="#A9A879" stroke-opacity="0.51" stroke-width="1.2607"/>
<line y1="162.482" x2="1511.58" y2="162.482" stroke="#A9A879" stroke-opacity="0.51" stroke-width="1.2607"/>
<line y1="1292.07" x2="1511.58" y2="1292.07" stroke="#A9A879" stroke-opacity="0.51" stroke-width="1.2607"/>
<line y1="646.589" x2="1511.58" y2="646.589" stroke="#A9A879" stroke-opacity="0.51" stroke-width="1.2607"/>
<line y1="969.329" x2="1511.58" y2="969.329" stroke="#A9A879" stroke-opacity="0.51" stroke-width="1.2607"/>
<line y1="323.851" x2="1511.58" y2="323.851" stroke="#A9A879" stroke-opacity="0.51" stroke-width="1.2607"/>
<line y1="1.11233" x2="1511.58" y2="1.11233" stroke="#A9A879" stroke-opacity="0.51" stroke-width="1.2607"/>
<line x1="47.2754" y1="214.801" x2="47.2753" y2="1382.21" stroke="#A9A879" stroke-opacity="0.51" stroke-width="1.2607"/>
<line x1="692.756" y1="214.801" x2="692.756" y2="1382.21" stroke="#A9A879" stroke-opacity="0.51" stroke-width="1.2607"/>
<line x1="370.016" y1="214.801" x2="370.016" y2="1382.21" stroke="#A9A879" stroke-opacity="0.51" stroke-width="1.2607"/>
<line x1="1015.49" y1="214.801" x2="1015.49" y2="1382.21" stroke="#A9A879" stroke-opacity="0.51" stroke-width="1.2607"/>
<line x1="1338.23" y1="214.801" x2="1338.23" y2="1382.21" stroke="#A9A879" stroke-opacity="0.51" stroke-width="1.2607"/>
<line x1="208.645" y1="214.801" x2="208.645" y2="1382.21" stroke="#A9A879" stroke-opacity="0.51" stroke-width="1.2607"/>
<line x1="854.122" y1="214.801" x2="854.122" y2="1382.21" stroke="#A9A879" stroke-opacity="0.51" stroke-width="1.2607"/>
<line x1="531.386" y1="214.801" x2="531.386" y2="1382.21" stroke="#A9A879" stroke-opacity="0.51" stroke-width="1.2607"/>
<line x1="1176.86" y1="214.801" x2="1176.86" y2="1382.21" stroke="#A9A879" stroke-opacity="0.51" stroke-width="1.2607"/>
<line x1="1499.6" y1="214.801" x2="1499.6" y2="1382.21" stroke="#A9A879" stroke-opacity="0.51" stroke-width="1.2607"/>
<line x1="127.963" y1="214.801" x2="127.963" y2="1382.21" stroke="#A9A879" stroke-opacity="0.51" stroke-width="1.2607"/>
<line x1="773.439" y1="214.801" x2="773.439" y2="1382.21" stroke="#A9A879" stroke-opacity="0.51" stroke-width="1.2607"/>
<line x1="450.699" y1="214.801" x2="450.699" y2="1382.21" stroke="#A9A879" stroke-opacity="0.51" stroke-width="1.2607"/>
<line x1="1096.18" y1="214.801" x2="1096.18" y2="1382.21" stroke="#A9A879" stroke-opacity="0.51" stroke-width="1.2607"/>
<line x1="1418.92" y1="214.801" x2="1418.92" y2="1382.21" stroke="#A9A879" stroke-opacity="0.51" stroke-width="1.2607"/>
<line x1="289.333" y1="214.801" x2="289.333" y2="1382.21" stroke="#A9A879" stroke-opacity="0.51" stroke-width="1.2607"/>
<line x1="934.809" y1="214.801" x2="934.809" y2="1382.21" stroke="#A9A879" stroke-opacity="0.51" stroke-width="1.2607"/>
<line x1="612.069" y1="214.801" x2="612.069" y2="1382.21" stroke="#A9A879" stroke-opacity="0.51" stroke-width="1.2607"/>
<line x1="1257.55" y1="214.801" x2="1257.55" y2="1382.21" stroke="#A9A879" stroke-opacity="0.51" stroke-width="1.2607"/>
<line x1="1580.29" y1="214.801" x2="1580.29" y2="1382.21" stroke="#A9A879" stroke-opacity="0.51" stroke-width="1.2607"/>
</g>
<g opacity="0.5">
<rect x="854.181" y="1049.96" width="80.2262" height="80.2262" fill="#D9AB52" fill-opacity="0.05"/>
<rect x="450.758" y="1049.96" width="80.2262" height="80.2262" fill="#D9AB52" fill-opacity="0.08"/>
<rect x="1177.38" y="486.08" width="80.2262" height="79.0801" fill="#D9AB52" fill-opacity="0.08"/>
<rect x="530.985" y="727.854" width="80.2262" height="79.0801" fill="#D9AB52" fill-opacity="0.08"/>
<rect x="1096.01" y="566.306" width="80.2262" height="79.0801" fill="#D9AB52" fill-opacity="0.08"/>
<rect x="450.612" y="486.08" width="80.2262" height="79.0801" fill="#D9AB52" fill-opacity="0.08"/>
<rect x="1096.01" y="486.08" width="80.2262" height="79.0801" fill="#D9AB52" fill-opacity="0.08"/>
<rect x="450.612" y="727.854" width="80.2262" height="79.0801" fill="#D9AB52" fill-opacity="0.08"/>
<rect x="370.532" y="1049.96" width="80.2262" height="80.2262" fill="#D9AB52" fill-opacity="0.08"/>
<rect x="370.532" y="1130.18" width="80.2262" height="81.3723" fill="#D9AB52" fill-opacity="0.08"/>
<rect x="208.933" y="969.729" width="80.2262" height="80.2262" fill="#D9AB52" fill-opacity="0.08"/>
<rect x="1015.78" y="324.481" width="80.2262" height="80.2262" fill="#D9AB52" fill-opacity="0.08"/>
<rect x="934.676" y="243.794" width="80.2262" height="79.5062" fill="#D9AB52" fill-opacity="0.08"/>
<rect x="934.676" y="324.052" width="80.2262" height="80.0285" fill="#D9AB52" fill-opacity="0.08"/>
<rect x="208.933" y="403.561" width="81.3723" height="82.5184" fill="#D9AB52" fill-opacity="0.08"/>
<rect x="127.561" y="323.335" width="81.3723" height="80.2262" fill="#D9AB52" fill-opacity="0.08"/>
<rect x="47.3345" y="324.481" width="81.3723" height="80.2262" fill="#D9AB52" fill-opacity="0.08"/>
<rect x="127.561" y="403.561" width="81.3723" height="82.5184" fill="#D9AB52" fill-opacity="0.08"/>
<rect x="450.757" y="243.109" width="81.3723" height="80.2262" fill="#D9AB52" fill-opacity="0.08"/>
<rect x="208.933" y="565.16" width="80.2262" height="81.3723" fill="#D9AB52" fill-opacity="0.08"/>
<rect x="1177.38" y="969.729" width="80.2262" height="80.2262" fill="#D9AB52" fill-opacity="0.08"/>
<rect x="1257.6" y="1049.96" width="80.2262" height="80.2262" fill="#D9AB52" fill-opacity="0.08"/>
</g>
</svg>
