<svg width="15" height="15" viewBox="0 0 15 15" fill="none" xmlns="http://www.w3.org/2000/svg">
    <path d="M5.82496 8.30004H7.75621V12.8C7.75621 13.4625 8.58121 13.775 9.01871 13.275L13.75 7.90004C14.1625 7.43129 13.8312 6.70004 13.2062 6.70004H11.275V2.20004C11.275 1.53754 10.45 1.22504 10.0125 1.72504L5.28121 7.10004C4.87496 7.56879 5.20621 8.30004 5.82496 8.30004Z" fill="#FF5A5A"/>
    <path d="M5.3125 2.96875H0.9375C0.68125 2.96875 0.46875 2.75625 0.46875 2.5C0.46875 2.24375 0.68125 2.03125 0.9375 2.03125H5.3125C5.56875 2.03125 5.78125 2.24375 5.78125 2.5C5.78125 2.75625 5.56875 2.96875 5.3125 2.96875Z" fill="#FF5A5A"/>
    <path d="M4.6875 12.9688H0.9375C0.68125 12.9688 0.46875 12.7563 0.46875 12.5C0.46875 12.2438 0.68125 12.0312 0.9375 12.0312H4.6875C4.94375 12.0312 5.15625 12.2438 5.15625 12.5C5.15625 12.7563 4.94375 12.9688 4.6875 12.9688Z" fill="#FF5A5A"/>
    <path d="M2.8125 7.96875H0.9375C0.68125 7.96875 0.46875 7.75625 0.46875 7.5C0.46875 7.24375 0.68125 7.03125 0.9375 7.03125H2.8125C3.06875 7.03125 3.28125 7.24375 3.28125 7.5C3.28125 7.75625 3.06875 7.96875 2.8125 7.96875Z" fill="#FF5A5A"/>
</svg>
