<svg width="151" height="107" viewBox="0 0 151 107" fill="none" xmlns="http://www.w3.org/2000/svg">
<path opacity="0.1" fill-rule="evenodd" clip-rule="evenodd" d="M2 72.6779C2 72.6779 7.79462 70.2087 14.3828 76.1405C26.913 87.4225 27.6278 66.7625 32.2742 56.8006C36.5251 47.6866 40.0456 53.2474 44.7787 64.3931C48.2695 72.6136 53.357 86.4124 58.6256 84.191C63.4417 82.1604 66.8558 65.9762 73.5314 61.8603C78.8222 58.5982 83.1219 67.56 89.2143 64.3931C97.4791 60.0969 101.171 34.8047 107.078 34.8047C114.368 34.8047 119.501 13.4135 126.133 13.4135C132.726 13.4135 133.621 25.992 140.833 34.8047C146.347 41.5421 149 34.8047 149 34.8047V107H2V72.6779Z" fill="url(#paint0_linear_1_453)"/>
<path d="M2 60.7525C2 60.7525 7.79462 58.3068 14.3828 64.1823C26.913 75.3571 27.6278 54.8933 32.2742 45.0261C36.5251 35.9987 40.0456 41.5067 44.7787 52.5465C48.2695 60.6888 53.357 74.3566 58.6256 72.1562C63.4417 70.1449 66.8558 54.1145 73.5314 50.0377C78.8222 46.8066 83.1219 55.6833 89.2143 52.5465C97.4791 48.2911 101.171 23.2392 107.078 23.2392C114.368 23.2392 119.501 2 126.133 2C132.726 2 133.077 14.5103 140.289 23.2392C145.803 29.9126 149 23.2392 149 23.2392" stroke="#0AC0FC" stroke-width="2.74194" stroke-linecap="round" stroke-linejoin="round"/>
<defs>
<linearGradient id="paint0_linear_1_453" x1="28.5667" y1="60.9" x2="28.5667" y2="107" gradientUnits="userSpaceOnUse">
<stop stop-color="#0ABFFC"/>
<stop offset="1" stop-color="white" stop-opacity="0.01"/>
</linearGradient>
</defs>
</svg>
